<?xml version="1.0" encoding="UTF-8"?>
<svg id="Layer_2" data-name="Layer 2" xmlns="http://www.w3.org/2000/svg" viewBox="0 0 78 78">
  <defs>
    <style>
      .cls-1 {
        fill: #fff;
      }

      .cls-2 {
        fill: #96529e;
      }
    </style>
  </defs>
  <g id="Layer_1-2" data-name="Layer 1-2">
    <circle class="cls-2" cx="39" cy="39" r="39"/>
  </g>
  <g>
    <path class="cls-1" d="m59.16,36.01c-2.39-9.9-10.93-14.84-20.87-13.57l-1.21.15c-.11-.97.4-2.42,1.8-2.64.17-.03.24-.24.12-.35-2.11-1.98-6.11-.97-7.72,2.63-1.23-1.81-2.91-4.3-2.91-4.3l-2.63,2.18s1.51,1.34,3.43,3.01c-2.83-1.09-6.82.52-8.56,3.81-.09.17.07.36.25.3,1.63-.55,3.24-.41,5.9-.64-.43.15-1.07.55-1.58.97-5.33,4.11-8.15,10.41-6.28,18.17,2.65,11,14.19,15.52,24.57,13.02,10.37-2.5,18.33-11.73,15.68-22.73Zm-5.44,3.7h-4.71v12.93h-5.35v-12.93h-3.48c-.46.88-1.16,1.61-2.09,2.17l-.17.1,3.83,6.44h-6.2l-3.45-5.9h-.92v5.9h-5.51v-18.19h7.57c3.89,0,6.45,1.51,7.31,4.22h13.17v5.26Z"/>
    <path class="cls-1" d="m32.74,34.45h-1.58v3.86h1.58c1.6,0,2.52-.72,2.52-1.98,0-1.12-.99-1.87-2.52-1.87Z"/>
  </g>
</svg>